<?xml version="1.0" standalone="no"?>
<!DOCTYPE svg PUBLIC "-//W3C//DTD SVG 20010904//EN"
 "http://www.w3.org/TR/2001/REC-SVG-20010904/DTD/svg10.dtd">
<svg version="1.0" xmlns="http://www.w3.org/2000/svg"
 width="652.000000pt" height="732.000000pt" viewBox="0 0 652.000000 732.000000"
 preserveAspectRatio="xMidYMid meet">

<g transform="translate(0.000000,732.000000) scale(0.100000,-0.100000)"
fill="#000000" stroke="none">
<path d="M2826 7279 c-3 -17 -6 -64 -6 -104 l0 -72 -57 -7 c-32 -4 -110 -18
-173 -32 -641 -142 -1180 -434 -1630 -884 -504 -504 -819 -1139 -927 -1865
-25 -172 -25 -698 0 -870 108 -726 423 -1361 927 -1865 495 -495 1140 -820
1825 -919 l120 -18 0 -89 c1 -49 -4 -165 -11 -259 -6 -93 -10 -173 -7 -177 2
-4 34 -26 71 -47 103 -62 290 -87 434 -61 58 11 182 61 230 94 26 17 28 23 28
90 0 64 -11 240 -24 397 l-5 55 97 12 c211 27 499 103 730 194 421 165 790
407 1112 728 504 504 819 1139 927 1865 14 95 18 185 18 435 0 339 -9 432 -61
670 -102 460 -272 847 -543 1230 -35 49 -67 90 -71 90 -4 0 -15 -29 -24 -64
-10 -34 -33 -99 -52 -142 -19 -43 -34 -82 -34 -87 0 -4 23 -43 50 -87 370
-591 528 -1351 424 -2050 -134 -911 -659 -1703 -1436 -2169 -284 -170 -673
-315 -978 -365 -52 -9 -109 -18 -127 -21 -19 -4 -33 -13 -35 -23 -4 -17 -15
148 -43 638 -9 140 -22 368 -30 505 -8 138 -21 369 -30 515 -8 146 -22 378
-30 515 -8 138 -17 314 -21 393 -7 164 -7 164 -88 138 -32 -10 -87 -16 -139
-16 l-87 0 -34 -52 c-34 -52 -34 -55 -45 -218 -6 -91 -13 -212 -16 -270 -3
-58 -10 -166 -15 -240 -5 -74 -12 -189 -15 -255 -3 -66 -10 -181 -15 -255 -5
-74 -12 -187 -15 -250 -3 -63 -10 -178 -15 -255 -5 -77 -12 -192 -15 -255 -3
-63 -10 -176 -15 -250 -5 -74 -12 -186 -15 -249 -3 -63 -7 -117 -9 -119 -8 -7
-219 28 -341 58 -602 144 -1160 490 -1560 965 -387 460 -617 989 -701 1610
-24 179 -24 551 0 730 84 621 314 1150 701 1610 431 512 1057 878 1698 995
l97 17 1 -66 c1 -85 10 -115 34 -119 18 -2 147 92 378 275 78 63 76 76 -21
138 -42 27 -134 87 -204 132 -141 92 -172 101 -182 52z m101 -6456 c-3 -10 -5
-2 -5 17 0 19 2 27 5 18 2 -10 2 -26 0 -35z m700 -75 c-3 -7 -5 -2 -5 12 0 14
2 19 5 13 2 -7 2 -19 0 -25z m-710 -60 c-2 -13 -4 -5 -4 17 -1 22 1 32 4 23 2
-10 2 -28 0 -40z"/>
<path d="M3780 7083 c-41 -15 -50 -35 -50 -108 0 -97 12 -108 161 -141 185
-41 457 -136 634 -222 l160 -78 220 6 220 5 -100 66 c-316 210 -681 361 -1096
453 -122 27 -125 28 -149 19z"/>
<path d="M3292 6708 c-9 -12 -59 -253 -143 -693 -16 -88 -36 -191 -44 -230 -8
-38 -17 -86 -20 -105 -3 -19 -9 -55 -14 -80 -5 -25 -17 -85 -26 -135 -9 -49
-22 -121 -30 -160 -7 -38 -21 -113 -30 -165 -9 -52 -23 -129 -30 -170 -8 -41
-21 -111 -29 -155 -9 -44 -18 -109 -22 -145 l-6 -66 69 -134 c111 -213 141
-265 155 -263 7 1 40 9 73 18 40 10 79 13 118 9 l58 -7 -3 1230 c-3 1306 -2
1263 -48 1263 -10 0 -22 -6 -28 -12z"/>
<path d="M4660 6485 c-373 -41 -547 -125 -436 -210 32 -24 33 -29 39 -108 12
-175 71 -397 147 -552 61 -126 116 -203 215 -300 l91 -91 -84 -78 c-180 -171
-298 -416 -353 -734 -10 -63 -19 -136 -19 -162 0 -43 -4 -50 -35 -74 -101 -78
20 -149 335 -197 176 -27 574 -37 785 -20 316 26 517 81 556 152 8 17 4 26
-25 55 -34 34 -37 41 -47 133 -42 392 -195 716 -422 897 l-37 30 48 40 c224
184 368 496 412 892 10 89 12 96 46 127 30 28 34 37 25 54 -38 70 -218 123
-516 151 -148 14 -583 11 -725 -5z m-167 -295 c167 -29 318 -40 552 -40 265 0
444 16 643 56 l33 7 -6 -54 c-47 -387 -213 -704 -435 -830 -97 -55 -110 -66
-110 -103 0 -39 13 -52 100 -97 169 -89 322 -313 394 -580 27 -97 61 -298 52
-306 -3 -3 -21 -1 -42 3 -33 8 -38 14 -58 69 -48 132 -145 266 -299 410 -86
82 -235 201 -264 212 -16 6 -133 -80 -251 -185 -160 -143 -270 -296 -340 -473
-8 -20 -20 -28 -47 -33 -20 -4 -38 -6 -39 -4 -8 11 28 218 54 311 76 271 230
491 410 586 75 40 80 45 80 88 0 39 -12 52 -87 89 -78 39 -217 177 -272 270
-61 104 -109 223 -142 354 -25 102 -51 270 -42 270 2 0 54 -9 116 -20z"/>
<path d="M5455 6129 c-44 -5 -104 -12 -134 -15 l-53 -6 93 -96 c52 -54 97 -98
101 -100 4 -2 23 15 44 37 37 42 69 52 92 29 19 -19 14 -49 -18 -107 -28 -50
-32 -91 -11 -91 12 0 38 73 67 187 l25 103 -26 35 c-31 39 -34 40 -180 24z"/>
<path d="M5492 5875 c-131 -133 -299 -229 -527 -300 -66 -20 -127 -39 -135
-42 -10 -3 21 -39 98 -114 l113 -109 29 20 c50 36 241 233 305 315 68 88 140
196 174 263 12 23 20 42 19 41 -2 0 -36 -33 -76 -74z"/>
<path d="M3194 4099 c-37 -10 -110 -78 -124 -114 -6 -15 -10 -59 -10 -99 0
-85 19 -122 88 -170 35 -25 55 -31 111 -34 83 -5 137 18 180 78 91 125 40 293
-101 335 -57 17 -97 18 -144 4z"/>
<path d="M3607 3823 c-10 -33 -32 -84 -51 -115 -39 -66 -40 -64 58 -118 32
-17 80 -45 106 -60 26 -15 72 -42 101 -58 30 -17 146 -83 259 -147 211 -121
246 -141 315 -180 112 -63 363 -205 460 -260 61 -34 178 -101 260 -147 83 -47
175 -99 205 -115 30 -17 93 -52 140 -77 174 -97 228 -120 245 -106 35 29 18
54 -107 156 -67 54 -149 121 -182 149 -101 82 -219 177 -451 363 -121 97 -222
179 -225 182 -6 7 -357 286 -460 366 -244 189 -269 199 -566 219 l-91 6 -16
-58z"/>
<path d="M2865 3737 c-33 -18 -134 -76 -225 -129 -91 -53 -219 -127 -285 -165
-66 -39 -187 -110 -270 -158 -82 -49 -188 -111 -235 -138 -379 -220 -939 -559
-1008 -609 -29 -22 -51 -45 -49 -51 7 -22 75 -18 154 9 80 27 285 104 453 169
95 37 297 116 740 290 129 51 335 132 458 180 l222 87 112 157 c61 86 120 168
131 182 l19 27 -56 67 c-32 37 -62 78 -68 91 -14 31 -21 30 -93 -9z"/>
</g>
</svg>
