<?xml version="1.0" encoding="utf-8"?>
<svg viewBox="0 0 500 500" xmlns="http://www.w3.org/2000/svg" xmlns:bx="https://boxy-svg.com">
  <rect x="237.845" y="230.388" width="26.105" height="217.267" style="stroke: rgb(0, 0, 0);" rx="7.596" ry="7.596" transform="matrix(1, 0, 0, 1, -7.105427357601002e-15, -7.105427357601002e-15)"/>
  <ellipse style="stroke: rgb(0, 0, 0);" cx="250.898" cy="190.194" rx="17.196" ry="17.542" transform="matrix(1, 0, 0, 1, -7.105427357601002e-15, -7.105427357601002e-15)"/>
  <path d="M 126.448 90.734 Q 134.355 27.236 142.261 90.734 L 148.657 142.102 Q 156.564 205.6 140.751 205.6 L 127.958 205.6 Q 112.145 205.6 120.052 142.102 Z" style="stroke: rgb(0, 0, 0); transform-origin: 134.446px 134.5px;" transform="matrix(0.877124130726, -0.480263054371, 0.480263054371, 0.877124130726, 66.054521784432, -37.225455150325)" bx:shape="triangle 112.145 27.236 44.419 178.364 0.5 0.356 1@a38d1c0b"/>
  <path d="M 126.448 90.734 Q 134.355 27.236 142.261 90.734 L 148.657 142.102 Q 156.564 205.6 140.751 205.6 L 127.958 205.6 Q 112.145 205.6 120.052 142.102 Z" style="stroke: rgb(0, 0, 0); transform-origin: 134.446px 134.5px;" transform="matrix(-0.776645898819, -0.629936933517, 0.629936933517, -0.776645898819, 44.245921510845, 132.889971883639)" bx:shape="triangle 112.145 27.236 44.419 178.364 0.5 0.356 1@a38d1c0b"/>
  <path style="stroke: rgb(0, 0, 0);" d="M 283.84 193.715 C 282.504 199.057 279.006 203.033 279.006 208.218 C 273.96 228.391 311.482 238.268 324.586 244.82 C 328.795 246.925 336.988 251.727 341.851 251.727 C 341.85 242.546 331.492 238.663 331.492 233.08 C 337.873 233.081 341.896 239.986 345.304 239.986 C 345.303 231.84 338.398 231.942 338.398 226.174 C 342.855 221.715 361.572 238.605 363.95 238.605 C 365.331 238.056 350.885 229.683 349.448 228.246 C 337.973 216.771 307.243 193.723 283.84 193.715 Z" transform="matrix(1, 0, 0, 1, -7.105427357601002e-15, -7.105427357601002e-15)"/>
  <path style="stroke: rgb(0, 0, 0);" d="M 351.519 271.064 C 351.519 268.315 350.665 253.798 352.901 253.798 C 356.624 253.8 363.109 273.676 365.331 275.898 C 371.193 273.944 360.497 253.489 360.497 248.273 C 365.024 243.748 371.305 260.221 372.928 263.467 C 379.605 276.82 370.166 297.676 370.166 314.572 C 366.089 311.119 366.141 306.403 365.331 305.594 C 356.104 296.367 351.52 284.942 351.519 271.064 Z" transform="matrix(1, 0, 0, 1, -7.105427357601002e-15, -7.105427357601002e-15)"/>
</svg>